<?xml version="1.0" standalone="no"?><!DOCTYPE svg PUBLIC "-//W3C//DTD SVG 1.1//EN" "http://www.w3.org/Graphics/SVG/1.1/DTD/svg11.dtd"><svg t="1540905136631" class="icon" style="" viewBox="0 0 1024 1024" version="1.1" xmlns="http://www.w3.org/2000/svg" p-id="9895" xmlns:xlink="http://www.w3.org/1999/xlink" width="200" height="200"><defs><style type="text/css"></style></defs><path d="M251.931577 670.176951 251.931577 344.104208l59.343183 0 0 326.072743L251.931577 670.176951zM343.119038 713.078839 343.119038 313.52716l71.406401 0 0 92.791939 33.078807 0 0 63.279774L414.525439 469.598873l0 243.479966L343.119038 713.078839zM448.295091 666.30781c24.336959-10.581376 82.97499-28.943956 82.97499-107.15048L452.583236 559.15733l0-53.62225L534.483124 505.53508l0-102.449463-67.41258 0 0-47.175725L534.483124 355.909892l0-42.926415 73.029274 0 0.96473 42.926415 123.512062 0 0.731723 149.625188 39.351598 0 0 53.62225-102.377926 0 85.454265 151.795832-80.687843 0-70.807532-132.454213c-2.896235 23.159661-18.201111 53.826642-43.423088 80.091018-41.565164 43.284101-94.76841 48.765895-111.933253 52.363195L448.297135 666.30781zM607.512397 403.085617l0 102.449463 66.580705 0 0-102.449463L607.512397 403.085617z" p-id="9896"></path><path d="M511.98978 2.048008C230.243538 2.048008 1.019916 231.269586 1.019916 513.024004s229.223622 510.975996 510.969864 510.975996C793.746242 1024 1022.980084 794.778422 1022.980084 513.024004S793.746242 2.048008 511.98978 2.048008zM511.98978 1008.175969C238.971078 1008.175969 16.858255 786.057014 16.858255 513.024004c0-273.018703 222.112823-495.139701 495.129482-495.139701 273.035054 0 495.156053 222.120998 495.156053 495.139701C1007.143789 786.057014 785.022791 1008.175969 511.98978 1008.175969z" p-id="9897"></path></svg>