<?xml version="1.0" standalone="no"?><!DOCTYPE svg PUBLIC "-//W3C//DTD SVG 1.1//EN" "http://www.w3.org/Graphics/SVG/1.1/DTD/svg11.dtd"><svg t="1540904809950" class="icon" style="" viewBox="0 0 1024 1024" version="1.1" xmlns="http://www.w3.org/2000/svg" p-id="8144" xmlns:xlink="http://www.w3.org/1999/xlink" width="200" height="200"><defs><style type="text/css"></style></defs><path d="M511.8 154.1L916 277v45.7H108V277l403.8-122.9m0-46L64 244.4v122.3h896V244.4L511.8 108.1zM113 831.4h798v16H113z" fill="#39393A" p-id="8145"></path><path d="M113 391.1h798v16H113z" fill="#E73B37" p-id="8146"></path><path d="M64.3 871.8h895.3v44H64.3zM204.2 475.6v287.3h52v44h-120v-44h52V475.6h-52v-44h120v44zM414.7 475.6v287.3h52v44h-120v-44h52V475.6h-52v-44h120v44zM625.2 475.6v287.3h52v44h-120v-44h52V475.6h-52v-44h120v44zM835.8 475.6v287.3h52v44h-120v-44h52V475.6h-52v-44h120v44z" fill="#39393A" p-id="8147"></path></svg>