<?xml version="1.0" standalone="no"?><!DOCTYPE svg PUBLIC "-//W3C//DTD SVG 1.1//EN" "http://www.w3.org/Graphics/SVG/1.1/DTD/svg11.dtd"><svg t="1540905226282" class="icon" style="" viewBox="0 0 1024 1024" version="1.1" xmlns="http://www.w3.org/2000/svg" p-id="12446" xmlns:xlink="http://www.w3.org/1999/xlink" width="200" height="200"><defs><style type="text/css"></style></defs><path d="M96.256 451.584l0-96.256 824.32 0 0 96.256-356.352 0 0 123.904 331.776 0 0 92.16-331.776 0 0 180.224 203.776 0-55.296-68.608-48.128-55.296 79.872-52.224 111.616 119.808-79.872 56.32 211.968 0 0 88.064-951.296 0 0-88.064 415.744 0 0-180.224-328.704 0 0-92.16 328.704 0 0-123.904-356.352 0zM64.512 319.488l0-176.128 407.552 0-15.36-35.84q-9.216-26.624-17.92-45.056t-14.848-26.624l124.928-12.288 31.744 71.68 19.456 48.128 360.448 0 0 176.128-108.544 0 0-79.872-684.032 0 0 79.872-103.424 0z" p-id="12447"></path></svg>