<?xml version="1.0" standalone="no"?><!DOCTYPE svg PUBLIC "-//W3C//DTD SVG 1.1//EN" "http://www.w3.org/Graphics/SVG/1.1/DTD/svg11.dtd"><svg t="1540906629983" class="icon" style="" viewBox="0 0 1024 1024" version="1.1" xmlns="http://www.w3.org/2000/svg" p-id="3975" xmlns:xlink="http://www.w3.org/1999/xlink" width="200" height="200"><defs><style type="text/css"></style></defs><path d="M107.789474 97.980632a53.894737 53.894737 0 0 0-53.894737 53.894736v215.578948a53.894737 53.894737 0 0 0 53.894737 53.894737h215.578947a53.894737 53.894737 0 0 0 53.894737-53.894737v-215.578948a53.894737 53.894737 0 0 0-53.894737-53.894736H107.789474z m0-53.894737h215.578947a107.789474 107.789474 0 0 1 107.789474 107.789473v215.578948a107.789474 107.789474 0 0 1-107.789474 107.789473H107.789474a107.789474 107.789474 0 0 1-107.789474-107.789473v-215.578948a107.789474 107.789474 0 0 1 107.789474-107.789473zM107.789474 636.928a53.894737 53.894737 0 0 0-53.894737 53.894737v215.578947a53.894737 53.894737 0 0 0 53.894737 53.894737h215.578947a53.894737 53.894737 0 0 0 53.894737-53.894737v-215.578947a53.894737 53.894737 0 0 0-53.894737-53.894737H107.789474z m0-53.894737h215.578947a107.789474 107.789474 0 0 1 107.789474 107.789474v215.578947a107.789474 107.789474 0 0 1-107.789474 107.789474H107.789474a107.789474 107.789474 0 0 1-107.789474-107.789474v-215.578947a107.789474 107.789474 0 0 1 107.789474-107.789474zM792.629895 83.105684a53.894737 53.894737 0 0 0-76.207158 0l-138.455579 138.509474a53.894737 53.894737 0 0 0 0 76.153263l138.455579 138.455579a53.894737 53.894737 0 0 0 76.207158 0l138.455579-138.455579a53.894737 53.894737 0 0 0 0-76.207158l-138.455579-138.455579z m38.103579-38.103579l138.455579 138.455579a107.789474 107.789474 0 0 1 0 152.414316l-138.455579 138.509474a107.789474 107.789474 0 0 1-152.414316 0l-138.455579-138.509474a107.789474 107.789474 0 0 1 0-152.414316L678.319158 45.002105a107.789474 107.789474 0 0 1 152.414316 0zM646.736842 636.928a53.894737 53.894737 0 0 0-53.894737 53.894737v215.578947a53.894737 53.894737 0 0 0 53.894737 53.894737h215.578947a53.894737 53.894737 0 0 0 53.894737-53.894737v-215.578947a53.894737 53.894737 0 0 0-53.894737-53.894737h-215.578947z m0-53.894737h215.578947a107.789474 107.789474 0 0 1 107.789474 107.789474v215.578947a107.789474 107.789474 0 0 1-107.789474 107.789474h-215.578947a107.789474 107.789474 0 0 1-107.789474-107.789474v-215.578947a107.789474 107.789474 0 0 1 107.789474-107.789474z" p-id="3976"></path></svg>