<?xml version="1.0" standalone="no"?><!DOCTYPE svg PUBLIC "-//W3C//DTD SVG 1.1//EN" "http://www.w3.org/Graphics/SVG/1.1/DTD/svg11.dtd"><svg t="1540905375988" class="icon" style="" viewBox="0 0 1024 1024" version="1.1" xmlns="http://www.w3.org/2000/svg" p-id="13608" xmlns:xlink="http://www.w3.org/1999/xlink" width="200" height="200"><defs><style type="text/css"></style></defs><path d="M848.896 719.872c69.12 0 70.144-107.52 1.024-107.52-69.632 0-70.144 107.52-1.024 107.52z m-140.288 112.128c69.12 0 70.144-107.52 0.512-107.52-69.12 0-69.632 107.52-0.512 107.52z m0-196.608c69.12 0 70.144-107.52 0.512-107.52-69.12 0-69.632 107.52-0.512 107.52z m28.672-193.536c124.928 0 226.304 102.4 224.256 228.352-2.048 122.88-104.96 220.672-227.84 220.672H291.84c-122.88 0-225.792-97.28-227.84-220.672-2.048-125.44 99.328-228.352 224.256-228.352h196.096V264.192c0-41.472 29.696-102.912 112.128-102.912s112.128 61.44 112.128 102.912v37.376c0 10.752 5.12 46.592 56.32 46.592 53.248 0 56.32-38.912 56.32-46.592V161.28c0-15.36 12.8-28.16 28.16-28.16s28.16 12.8 28.16 28.16v140.288c0 41.472-29.696 102.912-112.128 102.912s-112.128-61.44-112.128-102.912v-37.376c0-10.752-5.12-46.592-56.32-46.592-53.248 0-56.32 38.912-56.32 46.592v177.664H737.28z m-308.736 224.256c0-15.36-12.8-28.16-28.16-28.16h-56.32c-15.36 0-28.16-12.8-28.16-28.16v-56.32c0-15.36-12.8-28.16-28.16-28.16s-28.16 12.8-28.16 28.16v56.32c0 15.36-12.8 28.16-28.16 28.16h-56.32c-15.36 0-28.16 12.8-28.16 28.16s12.8 28.16 28.16 28.16h56.32c15.36 0 28.16 12.8 28.16 28.16v56.32c0 15.36 12.8 28.16 28.16 28.16s28.16-12.8 28.16-28.16v-56.32c0-15.36 12.8-28.16 28.16-28.16h56.32c15.872-0.512 28.16-12.8 28.16-28.16z" p-id="13609"></path></svg>