<?xml version="1.0" standalone="no"?><!DOCTYPE svg PUBLIC "-//W3C//DTD SVG 1.1//EN" "http://www.w3.org/Graphics/SVG/1.1/DTD/svg11.dtd"><svg t="1540904863595" class="icon" style="" viewBox="0 0 1024 1024" version="1.1" xmlns="http://www.w3.org/2000/svg" p-id="8291" xmlns:xlink="http://www.w3.org/1999/xlink" width="200" height="200"><defs><style type="text/css"></style></defs><path d="M483.21553931 574.62182338c-0.49343463-1.62833501-0.86351097-3.33068561-1.52964887-4.93434852-0.69080924-1.65300714-1.65300714-3.23199868-2.54118945-4.7863189-0.66613713-1.25825867-1.2089152-2.54118945-1.99841137-3.6514185a49.73823827 49.73823827 0 0 0-13.69281882-13.74216151c-1.13490039-0.71548058-2.39315906-1.25825867-3.60207427-1.92439657-1.60366367-0.88818308-3.18265523-1.85038099-4.90967717-2.56586156-1.5543202-0.64146501-3.20732657-1.01154136-4.81099102-1.5296481-1.48030463-0.44409115-2.86192234-0.96219789-4.39157044-1.30760212a53.11826735 53.11826735 0 0 0-9.4739501-0.91285521l-0.17270173-0.04934346h-219.01108234a49.34349057 49.34349057 0 0 0 0 98.68698114h99.89589634l-185.08743253 185.136776a49.34349057 49.34349057 0 1 0 69.77169543 69.77169465l185.08743252-185.13677522v99.84655288a49.34349057 49.34349057 0 0 0 98.68698038 0v-218.96173887a49.09677326 49.09677326 0 0 0-0.98686924-9.67132397c-0.24671731-1.48030463-0.81416751-2.81257887-1.23358732-4.26821216zM891.70562383 130.94983036a49.34349057 49.34349057 0 0 0-69.77169541 0l-185.08743254 185.08743176v-99.79720866a49.34349057 49.34349057 0 0 0-98.68698036 1e-8v218.93706677c0 3.23199868 0.37007634 6.46399738 0.96219788 9.67132395 0.3207329 1.45563329 0.86351097 2.81257887 1.28293079 4.21886793 0.51810673 1.65300714 0.88818308 3.35535697 1.55432021 4.98369274 0.64146501 1.65300714 1.57899157 3.1579831 2.491846 4.73697544 0.64146501 1.25825867 1.23358733 2.56586156 2.04775482 3.75010466 3.60207504 5.42778391 8.2650349 10.06607165 13.69281881 13.69281882 1.15957175 0.78949616 2.46717464 1.30760213 3.65141851 1.99841136 1.5543202 0.88818308 3.13331177 1.85038099 4.81099025 2.54118946 1.57899157 0.66613713 3.28134215 1.03621347 4.90967718 1.52964887 1.45563329 0.41941981 2.78790754 0.98687002 4.26821138 1.25825866 3.20732657 0.64146501 6.43932527 0.98687002 9.67132473 0.98687001h219.01108158a49.34349057 49.34349057 0 0 0 0-98.68698114h-99.89589635l185.08743252-185.08743175a49.26947499 49.26947499 0 0 0 0-69.82103889z" fill="#777777" p-id="8292"></path></svg>