<?xml version="1.0" standalone="no"?><!DOCTYPE svg PUBLIC "-//W3C//DTD SVG 1.1//EN" "http://www.w3.org/Graphics/SVG/1.1/DTD/svg11.dtd"><svg t="1540905965114" class="icon" style="" viewBox="0 0 1024 1024" version="1.1" xmlns="http://www.w3.org/2000/svg" p-id="15621" xmlns:xlink="http://www.w3.org/1999/xlink" width="200" height="200"><defs><style type="text/css"></style></defs><path d="M87 608.6 74 608.6c-8.3 0-13 4.6-13 13l0 221c0 8.4 4.8 13 13 13l13 0c8.3 0 13-4.6 13-13l0-221C100 613.3 95.3 608.6 87 608.6z" p-id="15622"></path><path d="M637.3 754.6C637.3 754.6 637.3 754.6 637.3 754.6L637.3 754.6 637.3 754.6z" p-id="15623"></path><path d="M399 452.6l156 0 0 117c0 0-3.1 13 26 13 20.7 0 26-13 26-13l0-117 158.9 0.6c0 0 10.5 2.7 10.1-26.6-0.3-15.7-13-13-13-13l-156 0 0-78 156 0c0 0 13-3.4 13-26 0-14.2-13-13-13-13L620 296.6l117-156c0 0 11.7-17.1 0-26-27.1-20.6-39 0-39 0l-117 156-117-156c0 0-14.7-25.3-39 0-11.8 12.2 0 26 0 26l117 156L399 296.6c0 0-13 0.7-13 13 0.1 28.4 13 26 13 26l156 0 0 78L399 413.6c0 0-12.5-0.7-13 13C385.1 455.5 399 452.6 399 452.6z" p-id="15624"></path><path d="M961 678.3l-75-90.9c-14.4-11.7-30 0-30 0L607.1 725.6c0 0 19.3 4 26 13 6.5 8.7 6.2 13.4 4.3 16l229.7-133 52 65-325 195-26 0c0 0-261.8-65-286-65-0.5 0-91 0-91 0l0-182c0 0 86.7-39 104-39 1.6 0 13.2-0.3 13 0 51.9 21.1 260 143 260 143s24.1 11.3 17.9 30.5c-9 28.5-30.9 21.5-30.9 21.5l-143-65 0 39 143 65c27.9 12.1 39-13 39-13s40.1-52.5 39-52c2.5-3.6 3.8-6.9 4.2-10-1.8 2.5-5 2.9-5 2.9l5-2.9 0 0c3.2-20.1-30.3-29-30.3-29s-259.7-155.5-260-156c-29.6-15.6-50-12.8-52-13-14.1-1.5-117 39-117 39-28.6 13.4-26 26-26 26l0 221c-1.2 8.7 13 13 13 13l104 0c35.6 4.3 299 65 299 65l26 0L946 708.6C971 691.4 961 678.3 961 678.3z" p-id="15625"></path></svg>