<?xml version="1.0" standalone="no"?><!DOCTYPE svg PUBLIC "-//W3C//DTD SVG 1.1//EN" "http://www.w3.org/Graphics/SVG/1.1/DTD/svg11.dtd"><svg t="1540178470127" class="icon" style="" viewBox="0 0 1067 1024" version="1.1" xmlns="http://www.w3.org/2000/svg" p-id="6889" xmlns:xlink="http://www.w3.org/1999/xlink" width="208.3984375" height="200"><defs><style type="text/css"></style></defs><path d="M170.666667 0l0 192L0 192l0 618.666667c0 117.333333 96 213.333333 213.333333 213.333333l640 0c117.333333 0 213.333333-96 213.333333-213.333333L1066.666667 0 170.666667 0zM170.666667 746.666667c0 53.333333-21.333333 102.4-53.333333 140.8C83.2 849.066667 64 800 64 746.666667L64 256l106.666667 0L170.666667 746.666667zM1002.666667 746.666667c0 117.333333-96 213.333333-213.333333 213.333333L277.333333 960c-32 0-59.733333-6.4-87.466667-19.2 27.733333-36.266667 44.8-81.066667 44.8-130.133333L234.666667 64l768 0L1002.666667 746.666667zM533.333333 682.666667 320 682.666667l0 64 213.333333 0L533.333333 682.666667zM533.333333 576 320 576l0 64 213.333333 0L533.333333 576zM533.333333 469.333333 320 469.333333l0 64 213.333333 0L533.333333 469.333333zM896 192 320 192l0 85.333333 576 0L896 192zM533.333333 362.666667 320 362.666667l0 64 213.333333 0L533.333333 362.666667zM597.333333 746.666667l298.666667 0L896 362.666667 597.333333 362.666667 597.333333 746.666667z" p-id="6890"></path></svg>