<?xml version="1.0" standalone="no"?><!DOCTYPE svg PUBLIC "-//W3C//DTD SVG 1.1//EN" "http://www.w3.org/Graphics/SVG/1.1/DTD/svg11.dtd"><svg t="1540177995658" class="icon" style="" viewBox="0 0 1024 1024" version="1.1" xmlns="http://www.w3.org/2000/svg" p-id="1770" xmlns:xlink="http://www.w3.org/1999/xlink" width="200" height="200"><defs><style type="text/css"></style></defs><path d="M316.4 609.8h391.1v-39.1H316.4v39.1z m0 97.8h391.1v-39.1H316.4v39.1z m0-195.6h391.1v-39.1H316.4V512z m0-97.8h391.1v-39.1H316.4v39.1z m352-205.3v-29.3c0-21.6-17.5-39.1-39.1-39.1h-39.8C584.7 101.9 551.9 72 512 72s-72.7 29.9-77.5 68.4h-39.8c-21.6 0-39.1 17.5-39.1 39.1v29.3H189.3V952h645.3V208.9H668.4z m-273.7-29.3h78.2v-29.3c0-21.6 17.5-39.1 39.1-39.1s39.1 17.5 39.1 39.1v29.3h78.2v88H394.7v-88z m400.9 733.3H228.4V248h127.1v19.6c0 21.6 17.5 39.1 39.1 39.1h234.7c21.6 0 39.1-17.5 39.1-39.1V248h127.1v664.9z" p-id="1771"></path></svg>