<?xml version="1.0" standalone="no"?><!DOCTYPE svg PUBLIC "-//W3C//DTD SVG 1.1//EN" "http://www.w3.org/Graphics/SVG/1.1/DTD/svg11.dtd"><svg t="1540904650956" class="icon" style="" viewBox="0 0 1024 1024" version="1.1" xmlns="http://www.w3.org/2000/svg" p-id="5163" xmlns:xlink="http://www.w3.org/1999/xlink" width="200" height="200"><defs><style type="text/css"></style></defs><path d="M766.768451 256.67794l0-63.844074c0-70.520123-57.168024-127.688147-127.688147-127.688147l-383.064442 0c-70.520123 0-127.688147 57.168024-127.688147 127.688147l0 510.751566c0 70.520123 57.168024 127.688147 127.688147 127.688147l0 63.844074c0 70.520123 57.168024 127.688147 127.688147 127.688147l383.064442 0c70.520123 0 127.688147-57.168024 127.688147-127.688147L894.456598 384.365064C894.456598 313.844941 837.288574 256.67794 766.768451 256.67794zM256.016885 384.365064l0 383.064442c-35.260062 0-63.844074-28.584012-63.844074-63.844074L192.172811 192.833867c0-35.260062 28.584012-63.844074 63.844074-63.844074l383.064442 0c35.260062 0 63.844074 28.584012 63.844074 63.844074l0 63.844074-319.220369 0C313.184909 256.67794 256.016885 313.844941 256.016885 384.365064zM830.612525 895.117654c0 35.260062-28.584012 63.844074-63.844074 63.844074l-383.064442 0c-35.260062 0-63.844074-28.584012-63.844074-63.844074L319.859935 384.365064c0-35.260062 28.584012-63.844074 63.844074-63.844074l383.064442 0c35.260062 0 63.844074 28.584012 63.844074 63.844074L830.612525 895.117654zM702.925401 384.366088l-94.942349 194.223516-87.172385-195.086164-73.259514 64.706721L575.235207 639.740336 447.551152 639.740336l0 63.844074L575.235207 703.58441l0 127.689171 63.845097 0L639.080304 703.58441l127.690194 0 0-63.844074L639.080304 639.740336l127.690194-191.529151L702.925401 384.366088z" p-id="5164"></path></svg>