<?xml version="1.0" standalone="no"?><!DOCTYPE svg PUBLIC "-//W3C//DTD SVG 1.1//EN" "http://www.w3.org/Graphics/SVG/1.1/DTD/svg11.dtd"><svg t="1540904577024" class="icon" style="" viewBox="0 0 1024 1024" version="1.1" xmlns="http://www.w3.org/2000/svg" p-id="4474" xmlns:xlink="http://www.w3.org/1999/xlink" width="200" height="200"><defs><style type="text/css"></style></defs><path d="M653.8 505.9c19.9 0 36-16.1 36-36s-16.1-36-36-36h-58.1l20.9-60.1c6.5-18.8-3.4-39.3-22.2-45.8s-39.3 3.4-45.8 22.2l-29.1 83.7h-14.9l-29.1-83.7c-6.5-18.8-27-28.7-45.8-22.2-18.8 6.5-28.7 27-22.2 45.8l20.9 60.1h-58.1c-19.9 0-36 16.1-36 36s16.1 36 36 36H476v61.7H370.2c-19.9 0-36 16.1-36 36s16.1 36 36 36H476V722c0 19.9 16.1 36 36 36s36-16.1 36-36v-82.3h105.8c19.9 0 36-16.1 36-36s-16.1-36-36-36H548V506h105.8z" p-id="4475"></path><path d="M983.8 312.7C958 251.7 921 197 874 150c-47-47-101.7-84-162.7-109.7C648.2 13.5 581.1 0 512 0S375.8 13.5 312.7 40.3C251.7 66 197 103 150 150c-47 47-84 101.7-109.7 162.7C13.5 375.8 0 442.9 0 512s13.5 136.2 40.3 199.3C66 772.3 103 827 150 874c47 47 101.8 83.9 162.7 109.7 63.1 26.7 130.2 40.3 199.3 40.3s136.2-13.5 199.3-40.3C772.3 958 827 921 874 874c47-47 83.9-101.8 109.7-162.7 26.7-63.1 40.3-130.2 40.3-199.3s-13.5-136.2-40.2-199.3zM512 952C269.4 952 72 754.6 72 512S269.4 72 512 72s440 197.4 440 440-197.4 440-440 440z" p-id="4476"></path></svg>