<?xml version="1.0" standalone="no"?><!DOCTYPE svg PUBLIC "-//W3C//DTD SVG 1.1//EN" "http://www.w3.org/Graphics/SVG/1.1/DTD/svg11.dtd"><svg t="1540906150597" class="icon" style="" viewBox="0 0 1024 1024" version="1.1" xmlns="http://www.w3.org/2000/svg" p-id="15895" xmlns:xlink="http://www.w3.org/1999/xlink" width="200" height="200"><defs><style type="text/css"></style></defs><path d="M865.004 167.069c-10.794-9.687-24.91-15.085-39.579-15.085-1.383 0-2.629 0-4.013 0.139-0.831 0.139-10.102 0.692-24.771 0.692-24.218 0-71.408-1.522-116.107-12.178-57.708-13.7-124.411-77.083-143.785-89.675-9.687-6.227-21.034-9.41-32.244-9.41-11.21 0-22.42 3.182-32.244 9.41-2.353 1.522-72.1 73.484-140.324 89.675-44.699 10.655-92.72 12.178-116.938 12.178-14.53 0-23.941-0.554-24.771-0.692-1.246-0.139-2.629-0.139-3.875-0.139-14.67 0-28.924 5.396-39.717 15.085-11.763 10.655-18.405 25.325-18.405 40.825v140.048c0 517.846 351.089 584.411 366.034 587.040 3.46 0.554 6.782 0.831 10.241 0.831 3.46 0 6.918-0.276 10.241-0.831 14.946-2.629 368.663-69.33 368.663-587.040v-139.911c0.139-15.5-6.642-30.446-18.405-40.962v0zM825.425 348.080c0 476.883-320.783 531.961-320.783 531.961s-318.291-55.078-318.291-531.961v-140.048c0 0 10.933 0.831 28.785 0.831 30.446 0 81.648-2.214 130.777-13.839 80.403-19.098 158.731-97.564 158.731-97.564s81.787 78.466 162.19 97.564c49.129 11.625 99.501 13.839 129.946 13.839 17.714 0 28.785-0.831 28.785-0.831l-0.139 140.048zM463.405 491.173z" p-id="15896"></path><path d="M349.925 603.958l66.841-15.085c10.102 54.663 40.962 81.925 92.72 81.925 57.43-1.383 87.045-29.476 88.429-84.14 0-50.373-35.289-75.421-105.728-75.421-17.299 0-30.998 0-40.962 0v-51.757c10.102 0 20.757 0 32.382 0 66.149 0 99.916-25.187 101.3-75.421-1.383-45.945-26.571-69.747-75.421-71.132-48.85 0-77.635 26.571-86.215 79.85l-64.766-15.085c18.683-76.252 70.438-114.308 155.27-114.308 87.738 2.906 134.373 40.962 140.187 114.308-1.383 53.279-30.998 87.738-88.429 103.514 63.244 13.008 97.009 49.542 101.3 110.019-4.29 81.925-56.878 124.411-157.486 127.316-87.461 1.246-140.739-36.811-159.422-114.585z" p-id="15897"></path></svg>