<?xml version="1.0" standalone="no"?><!DOCTYPE svg PUBLIC "-//W3C//DTD SVG 1.1//EN" "http://www.w3.org/Graphics/SVG/1.1/DTD/svg11.dtd"><svg t="1540906578583" class="icon" style="" viewBox="0 0 1024 1024" version="1.1" xmlns="http://www.w3.org/2000/svg" p-id="3292" data-spm-anchor-id="a313x.7781069.0.i2" xmlns:xlink="http://www.w3.org/1999/xlink" width="200" height="200"><defs><style type="text/css"></style></defs><path d="M774.826667 626.346667c-51.2 0-93.866667 42.666667-93.866667 93.866666s42.666667 93.866667 93.866667 93.866667 93.866667-42.666667 93.866666-93.866667-42.666667-93.866667-93.866666-93.866666z m0 151.893333c-32.426667 0-59.733333-27.306667-59.733334-59.733333s27.306667-59.733333 59.733334-59.733334 59.733333 27.306667 59.733333 59.733334-27.306667 59.733333-59.733333 59.733333z" p-id="3293"></path><path d="M983.04 677.546667c-1.706667-8.533333-8.533333-13.653333-17.066667-13.653334-18.773333 0-37.546667-10.24-46.08-27.306666-10.24-17.066667-10.24-37.546667 0-54.613334 3.413333-6.826667 1.706667-15.36-3.413333-20.48-20.48-18.773333-46.08-32.426667-71.68-42.666666-6.826667-3.413333-15.36 0-20.48 6.826666-10.24 17.066667-27.306667 27.306667-47.786667 27.306667s-37.546667-10.24-47.786666-27.306667c-3.413333-6.826667-11.946667-10.24-20.48-6.826666-27.306667 8.533333-51.2 23.893333-71.68 42.666666-5.12 5.12-6.826667 13.653333-3.413334 20.48 6.826667 13.653333 8.533333 29.013333 3.413334 42.666667-5.12-1.706667-11.946667-3.413333-15.36-5.12 0-11.946667 1.706667-30.72 1.706666-61.44 64.853333-44.373333 104.106667-117.76 104.106667-196.266667v-73.386666c0-129.706667-105.813333-235.52-235.52-235.52s-238.933333 105.813333-238.933333 235.52v73.386666c0 75.093333 37.546667 141.653333 104.106666 186.026667v8.533333c0 18.773333-1.706667 46.08 0 64.853334-52.906667 15.36-221.866667 64.853333-259.413333 122.88-5.12 8.533333-13.653333 27.306667-15.36 83.626666 0 6.826667 5.12 13.653333 10.24 17.066667 119.466667 44.373333 256 68.266667 394.24 68.266667 58.026667 0 114.346667-3.413333 172.373333-11.946667 13.653333 8.533333 29.013333 17.066667 46.08 22.186667 6.826667 1.706667 15.36 0 20.48-6.826667 10.24-17.066667 27.306667-27.306667 47.786667-27.306667 18.773333 0 37.546667 10.24 47.786667 27.306667 3.413333 5.12 8.533333 8.533333 15.36 8.533333 1.706667 0 3.413333 0 5.12-1.706666 27.306667-8.533333 51.2-22.186667 71.68-40.96 5.12-5.12 6.826667-13.653333 3.413333-20.48-8.533333-17.066667-8.533333-37.546667 0-54.613334 10.24-17.066667 27.306667-27.306667 47.786667-27.306666 8.533333 0 15.36-5.12 17.066666-13.653334 3.413333-13.653333 3.413333-27.306667 3.413334-40.96 1.706667-20.48 0-34.133333-1.706667-47.786666z m-865.28 136.533333c1.706667-39.253333 6.826667-49.493333 8.533333-52.906667 29.013333-46.08 192.853333-95.573333 252.586667-110.933333 8.533333-1.706667 13.653333-11.946667 11.946667-20.48-1.706667-6.826667-1.706667-42.666667 0-71.68v-17.066667c0-6.826667-3.413333-11.946667-8.533334-15.36-44.373333-27.306667-95.573333-76.8-95.573333-162.133333V290.133333c0-110.933333 90.453333-201.386667 201.386667-201.386666 110.933333 0 201.386667 90.453333 201.386666 201.386666v73.386667c0 64.853333-32.426667 128-85.333333 165.546667-10.24-1.706667-18.773333 8.533333-18.773333 17.066666v8.533334c0 44.373333 0 69.973333-1.706667 75.093333-1.706667 5.12-1.706667 8.533333 1.706667 13.653333 1.706667 3.413333 6.826667 6.826667 10.24 8.533334 0 0 6.826667 1.706667 17.066666 5.12h-1.706666l-1.706667 1.706666-10.24 5.12H597.333333c-3.413333 1.706667-8.533333 1.706667-13.653333 1.706667-1.706667 0-3.413333 0-5.12 1.706667-5.12 1.706667-8.533333 6.826667-10.24 11.946666-1.706667 11.946667-3.413333 23.893333-3.413333 35.84v6.826667c0 13.653333 1.706667 27.306667 3.413333 40.96 1.706667 8.533333 8.533333 13.653333 17.066667 13.653333 18.773333 0 37.546667 10.24 46.08 27.306667 10.24 17.066667 10.24 37.546667 0 54.613333-1.706667 1.706667-1.706667 3.413333-1.706667 5.12V868.693333c-179.2 20.48-360.106667 0-512-54.613333z m832.853333-71.68c-25.6 5.12-47.786667 20.48-61.44 42.666667-13.653333 23.893333-15.36 49.493333-6.826666 75.093333-11.946667 8.533333-25.6 17.066667-39.253334 22.186667-17.066667-20.48-40.96-32.426667-68.266666-32.426667s-51.2 11.946667-68.266667 30.72c-13.653333-5.12-25.6-11.946667-35.84-20.48-1.706667 0-1.706667-1.706667-3.413333-1.706667 8.533333-23.893333 6.826667-51.2-6.826667-75.093333-13.653333-22.186667-35.84-39.253333-61.44-42.666667-1.706667-6.826667-1.706667-13.653333-1.706667-22.186666s0-15.36 1.706667-23.893334c25.6-5.12 47.786667-20.48 61.44-42.666666 13.653333-22.186667 15.36-49.493333 6.826667-73.386667 11.946667-10.24 25.6-17.066667 39.253333-22.186667 17.066667 20.48 40.96 30.72 68.266667 30.72s51.2-11.946667 68.266666-30.72c13.653333 5.12 27.306667 13.653333 39.253334 22.186667-8.533333 23.893333-6.826667 51.2 6.826666 75.093333 13.653333 23.893333 35.84 39.253333 61.44 42.666667 1.706667 6.826667 1.706667 15.36 1.706667 22.186667 0 8.533333 0 15.36-1.706667 23.893333z" p-id="3294"></path></svg>