<?xml version="1.0" standalone="no"?><!DOCTYPE svg PUBLIC "-//W3C//DTD SVG 1.1//EN" "http://www.w3.org/Graphics/SVG/1.1/DTD/svg11.dtd"><svg t="1540906386593" class="icon" style="" viewBox="0 0 1024 1024" version="1.1" xmlns="http://www.w3.org/2000/svg" p-id="1934" xmlns:xlink="http://www.w3.org/1999/xlink" width="200" height="200"><defs><style type="text/css"></style></defs><path d="M462.071356 960.938756c-247.315712 0-448.563202-201.415312-448.563202-448.935686 0-247.524466 201.24749-448.941825 448.563202-448.941825 247.320828 0 448.566272 201.417359 448.566272 448.941825 0 30.342052-3.035126 60.871369-9.102309 90.391706-2.428306 11.539824-13.537318 19.015076-25.066909 16.582677-11.530614-2.428306-18.996656-13.544481-16.569374-25.085328 5.462408-26.693965 8.284687-54.187133 8.284687-81.889055 0-224.075405-182.249811-406.476665-406.136927-406.476665S55.911916 287.928688 55.911916 512.00307c0 224.068242 182.247764 406.472572 406.133857 406.472572 106.073874 0 206.499098-40.642652 282.677081-114.666576 8.495488-8.290827 22.031782-8.080026 30.105668 0.398066 8.286734 8.504698 8.074909 22.051225-0.399089 30.129204C690.180634 916.047336 579.258335 960.938756 462.071356 960.938756L462.071356 960.938756M462.071356 960.938756 462.071356 960.938756z" p-id="1935"></path><path d="M880.320135 669.206438c-5.462408 0-10.92584-2.006703-15.144932-6.257517L756.280074 553.939181c-8.287757-8.502651-8.499581-21.839401 0-30.130228 8.497535-8.292873 21.819958-8.292873 30.105668 0l93.960998 94.036723 93.748151-94.036723c8.498558-8.292873 21.822005-8.504698 30.107715 0 8.28571 8.502651 8.28571 21.839401 0 30.130228L895.306454 662.948921C891.244952 667.199735 885.783567 669.206438 880.320135 669.206438L880.320135 669.206438M880.320135 669.206438 880.320135 669.206438z" p-id="1936"></path><path d="M644.486942 530.416442c13.665231 0 24.709775-10.616802 24.662703-23.806195 0.048095-13.140275-10.996448-23.805172-24.662703-23.805172L478.707244 482.805074l0-13.94971 183.016267-183.015244c9.66308-9.665127 9.950629-24.995277 0.666172-34.279734-9.18929-9.332553-24.663726-8.998955-34.328853 0.618077L454.902072 425.292196 281.741267 252.18051c-9.617032-9.618055-25.043373-9.951653-34.279734-0.618077-9.283434 9.235338-9.046027 24.614607 0.665149 34.279734l182.968172 183.015244 0 13.94971L265.31618 482.807121c-13.618159 0-24.709775 10.664897-24.662703 23.805172 0 13.093203 10.998495 23.806195 24.709775 23.806195l165.732625 0 0 95.221712L265.31618 625.6402c-13.618159 0-24.709775 10.712993-24.662703 23.806195 0 13.091156 10.998495 23.804149 24.709775 23.804149l165.732625 0L431.095877 791.417851c0 13.617136 10.616802 24.661679 23.805172 24.661679 13.093203 0 23.805172-11.044544 23.805172-24.661679L478.706221 673.247474l165.779697 0c13.617136 0 24.709775-10.616802 24.662703-23.804149 0.048095-13.093203-10.996448-23.806195-24.662703-23.806195L478.707244 625.63713l0-95.221712L644.486942 530.415418 644.486942 530.416442z" p-id="1937"></path></svg>