<?xml version="1.0" standalone="no"?><!DOCTYPE svg PUBLIC "-//W3C//DTD SVG 1.1//EN" "http://www.w3.org/Graphics/SVG/1.1/DTD/svg11.dtd"><svg t="1540904715641" class="icon" style="" viewBox="0 0 1024 1024" version="1.1" xmlns="http://www.w3.org/2000/svg" p-id="5321" xmlns:xlink="http://www.w3.org/1999/xlink" width="200" height="200"><defs><style type="text/css"></style></defs><path d="M511.998465 982.495724c-63.506383 0-125.124765-12.443403-183.146227-36.985356-56.029084-23.697725-106.343003-57.619302-149.544944-100.819197-43.200918-43.202964-77.121472-93.516884-100.82022-149.546991-24.540929-58.020438-36.984333-119.640867-36.984333-183.14418 0-63.506383 12.443403-125.124765 36.984333-183.14725 23.698748-56.029084 57.619302-106.344027 100.82022-149.545968 43.200918-43.200918 93.51586-77.121472 149.544944-100.819197 58.021461-24.540929 119.640867-36.985356 183.146227-36.985356s125.124765 12.443403 183.146227 36.985356c56.030108 23.697725 106.344027 57.619302 149.544944 100.819197 43.202964 43.201941 77.123518 93.51586 100.821244 149.545968 24.540929 58.021461 36.985356 119.640867 36.985356 183.14725 0 63.503313-12.443403 125.123742-36.985356 183.14418-23.697725 56.030108-57.619302 106.344027-100.821244 149.546991-43.200918 43.200918-93.514837 77.121472-149.544944 100.819197-58.021461 24.541953-119.641891 36.985356-183.146227 36.985356z m0-889.827161c-231.220129 0-419.330414 188.110285-419.330414 419.331437 0 231.220129 188.110285 419.330414 419.330414 419.330414 231.219105 0 419.331437-188.110285 419.331437-419.330414 0-231.220129-188.112332-419.331437-419.331437-419.331437z" fill="" p-id="5322"></path><path d="M399.256728 480.736972h-74.588789v-54.428633c-16.127306 12.095479-32.94739 24.190959-50.39783 36.286438-1.354857-6.709819-4.031826-20.821211-8.063653-42.334178-5.386684-20.159132-8.757454-33.577746-10.079566-40.318264 47.02706-26.867928 87.345324-63.815421 120.953769-110.874203l72.572876 30.238698c-2.708692 2.708692-6.04774 6.740518-10.079566 12.095479-10.772344 13.450337-24.190959 29.576619-40.318264 48.381917v120.952746z m141.112901 92.732008c0 5.386684-0.692778 13.450337-2.015913 24.190959v12.095479c0 1.353834-0.693802 4.030803-2.015913 8.063653 0 4.030803-0.693802 7.401574-2.016937 10.079566 77.926814 21.512966 145.145751 41.673122 201.590298 60.477396l-34.269501 66.525136c-16.127306-5.386684-40.318264-14.111392-72.572876-26.205848-57.799404-20.159132-100.134605-33.609469-127.001509-40.318265-30.931476 28.222785-99.472526 51.058886-205.622124 68.540026-9.41851-21.512966-22.175045-45.042869-38.302351-70.555939 141.112901-12.095479 207.638037-38.302351 199.574385-78.620615 1.323135-6.708795 2.015913-18.142196 2.015913-34.269501h80.636528zM411.352207 361.799116l76.603679-8.063653a6820.046217 6820.046217 0 0 1-6.04774-24.190958c-5.386684-25.514093-8.756431-45.673226-10.079566-60.477396h78.620615c4.030803 30.931476 9.385764 56.44557 16.127306 76.603678l52.413744-6.047739c-4.031826-2.676969-9.41851-7.370875-16.127306-14.111393-12.095479-9.386788-20.852934-16.127306-26.206872-20.159132l50.39783-38.302351c13.417591 9.41851 30.238698 21.512966 50.397831 36.286438 4.030803 2.708692 6.708795 4.724605 8.063653 6.047739l-36.286438 28.222785 76.603678-8.063652 8.063653 64.509222-139.098011 16.127306c6.709819 10.772344 14.111392 20.159132 22.175045 28.222785 10.741645 10.772344 22.836101 16.127306 36.286438 16.127306 8.063653 0 14.111392-5.353938 18.143219-16.127306 2.676969-10.740622 4.030803-22.836101 4.030803-36.286438 36.286438 12.095479 59.122539 19.498076 68.541049 22.175045-4.031826 28.222785-8.064676 45.704948-12.095479 52.413744-6.740518 20.159132-20.159132 32.94739-40.318264 38.302351v131.033335h-78.619592v-90.715071H387.161249v94.747921h-78.620616v-159.257144h260.052805c-8.063653-4.031826-14.804171-10.079566-20.159132-18.143219-16.127306-16.127306-28.915563-34.270525-38.302351-54.428633l-90.715072 10.079566-8.064676-66.525136z" fill="" p-id="5323"></path></svg>